<?xml version="1.0" encoding="UTF-8" standalone="no"?>
<!DOCTYPE svg PUBLIC "-//W3C//DTD SVG 1.1//EN" "http://www.w3.org/Graphics/SVG/1.1/DTD/svg11.dtd">
<svg xmlns="http://www.w3.org/2000/svg" version="1.1" viewBox="0.00 0.00 190.00 156.00">
<path fill="#88d2d9" d="
  M 53.86 0.00
  Q 64.45 2.11 68.84 10.42
  Q 81.47 34.29 92.80 55.54
  A 1.39 1.37 -9.2 0 0 93.80 56.25
  L 112.05 59.13
  A 0.50 0.50 0.0 0 1 112.33 59.98
  L 105.95 66.36
  A 2.45 2.45 0.0 0 1 103.84 67.05
  L 98.96 66.28
  A 0.36 0.35 79.6 0 0 98.60 66.81
  L 102.53 73.61
  A 0.57 0.57 0.0 0 0 103.37 73.78
  Q 115.00 64.77 122.78 52.48
  C 131.35 38.93 135.50 20.33 152.17 14.26
  Q 161.54 10.85 169.14 13.17
  Q 177.96 15.87 181.77 24.46
  Q 192.40 48.50 188.32 75.51
  C 181.95 117.65 147.28 150.32 104.83 154.63
  Q 75.28 157.64 50.21 144.24
  Q 24.56 130.53 10.99 105.50
  Q 1.70 88.35 0.00 67.97
  L 0.00 59.15
  C 1.43 49.69 8.20 44.27 17.29 42.29
  Q 24.75 40.67 32.30 41.37
  A 0.39 0.38 -9.0 0 1 32.62 41.60
  L 36.61 50.68
  A 0.10 0.10 0.0 0 1 36.50 50.82
  C 30.19 49.86 17.53 49.42 12.46 54.22
  C 3.34 62.84 15.15 76.76 22.74 81.89
  Q 38.59 92.60 58.07 90.47
  A 0.45 0.45 0.0 0 0 58.44 89.84
  Q 33.38 33.16 33.19 32.77
  Q 29.98 26.16 29.79 22.03
  C 29.27 10.77 36.62 2.02 47.71 0.00
  L 53.86 0.00
  Z
  M 94.62 78.60
  Q 80.91 52.82 62.07 17.31
  Q 59.89 13.20 58.08 11.70
  C 50.73 5.61 39.43 10.61 38.90 20.02
  Q 38.75 22.75 41.02 27.78
  Q 45.84 38.50 67.99 88.74
  A 0.66 0.65 -17.4 0 0 68.73 89.12
  Q 82.45 86.46 94.31 79.69
  A 0.82 0.81 61.2 0 0 94.62 78.60
  Z
  M 13.22 86.07
  A 0.23 0.22 11.0 0 0 12.86 86.31
  C 22.48 115.96 46.39 137.69 76.99 144.30
  C 112.76 152.02 149.59 135.66 168.38 104.41
  C 178.24 88.01 182.46 67.83 179.26 48.61
  A 0.25 0.24 60.0 0 0 178.83 48.49
  Q 171.99 57.01 163.66 60.95
  Q 148.17 68.28 127.98 68.47
  A 0.14 0.14 0.0 0 1 127.87 68.25
  L 134.14 59.54
  A 0.71 0.68 15.2 0 1 134.67 59.25
  C 148.14 58.33 168.78 52.63 173.57 38.37
  Q 176.03 31.02 172.08 25.87
  C 165.96 17.89 153.93 21.57 148.21 27.50
  C 143.11 32.79 139.67 39.60 136.48 46.48
  C 129.88 60.71 120.06 72.93 107.39 82.15
  A 0.47 0.47 0.0 0 0 107.25 82.75
  Q 112.21 92.24 114.50 96.41
  C 118.38 103.48 120.11 109.20 118.32 116.58
  C 114.60 131.98 97.88 139.36 83.64 132.73
  Q 75.60 128.98 71.34 119.16
  Q 67.29 109.79 62.86 99.83
  A 0.76 0.76 0.0 0 0 62.11 99.39
  Q 52.28 100.11 46.17 99.59
  Q 27.78 98.01 13.22 86.07
  Z
  M 72.19 98.13
  Q 72.33 98.50 79.27 114.29
  Q 81.86 120.19 84.17 122.13
  C 94.90 131.14 110.09 123.74 109.83 110.08
  Q 109.76 106.79 105.86 99.72
  Q 102.34 93.35 99.46 87.71
  A 0.36 0.36 0.0 0 0 98.96 87.56
  Q 86.46 94.63 72.44 97.65
  A 0.35 0.35 0.0 0 0 72.19 98.13
  Z"
/>
</svg>
